<svg width="900" height="210" xmlns="http://www.w3.org/2000/svg" fill="none">

 <!-- ======= MATRIX (left) ======= -->
 <!-- column headers -->
 <!-- header rule -->
 <!-- vertical col separators -->
 <!-- row labels -->
 <!-- row rules -->
 <!-- api-service: engineer + pm assigned -->
 <!-- mobile-app: engineer + writer assigned -->
 <!-- data-pipeline: engineer + pm + qa assigned -->
 <!-- ======= DIVIDER ======= -->
 <!-- ======= MERGE CHAIN (right) ======= -->
 <!-- box 1: agency -->
 <!-- box 2: team -->
 <!-- box 3: role -->
 <!-- box 4: project -->
 <!-- right note -->
 <g>
  <title>Layer 1</title>
  <rect id="svg_1" rx="10" fill="#0d1117" height="210" width="900"/>
  <rect id="svg_2" rx="10" stroke="#30363d" fill="none" height="209" width="899" y="0.5" x="0.5"/>
  <rect id="svg_3" rx="2" fill="#a78bfa" height="210" width="4" y="0" x="0"/>
  <text id="svg_4" font-weight="600" text-anchor="middle" fill="#a78bfa" font-size="15" font-family="-apple-system,BlinkMacSystemFont,sans-serif" y="40" x="210">engineer</text>
  <text id="svg_5" font-weight="600" text-anchor="middle" fill="#60a5fa" font-size="15" font-family="-apple-system,BlinkMacSystemFont,sans-serif" y="40" x="300">pm</text>
  <text id="svg_6" font-weight="600" text-anchor="middle" fill="#34d399" font-size="15" font-family="-apple-system,BlinkMacSystemFont,sans-serif" y="40" x="390">qa</text>
  <text id="svg_7" font-weight="600" text-anchor="middle" fill="#f97316" font-size="15" font-family="-apple-system,BlinkMacSystemFont,sans-serif" y="40" x="480">writer</text>
  <line id="svg_8" stroke="#30363d" y2="49" x2="516" y1="49" x1="22"/>
  <line id="svg_9" stroke="#21262d" y2="175" x2="160" y1="49" x1="160"/>
  <line id="svg_10" stroke="#21262d" y2="175" x2="252" y1="49" x1="252"/>
  <line id="svg_11" stroke="#21262d" y2="175" x2="344" y1="49" x1="344"/>
  <line id="svg_12" stroke="#21262d" y2="175" x2="436" y1="49" x1="436"/>
  <text id="svg_13" fill="#8b949e" font-size="15" font-family="'SF Mono',Menlo,monospace" y="77" x="32">api-service</text>
  <text id="svg_14" fill="#8b949e" font-size="15" font-family="'SF Mono',Menlo,monospace" y="120" x="37">mobile-app</text>
  <text id="svg_15" fill="#8b949e" font-size="15" font-family="'SF Mono',Menlo,monospace" y="156" x="28">data-pipeline</text>
  <line id="svg_16" stroke="#21262d" y2="97" x2="516" y1="97" x1="22"/>
  <line id="svg_17" stroke="#21262d" y2="133" x2="516" y1="133" x1="22"/>
  <line id="svg_18" stroke="#21262d" y2="169" x2="516" y1="169" x1="22"/>
  <circle id="svg_19" opacity="0.85" fill="#a78bfa" r="9" cy="74" cx="210"/>
  <circle id="svg_20" opacity="0.85" fill="#60a5fa" r="9" cy="74" cx="300"/>
  <circle id="svg_21" stroke-width="1.5" stroke="#30363d" fill="none" r="8" cy="76" cx="390"/>
  <circle id="svg_22" stroke-width="1.5" stroke="#30363d" fill="none" r="8" cy="75" cx="480"/>
  <circle id="svg_23" opacity="0.85" fill="#a78bfa" r="9" cy="115" cx="210"/>
  <circle id="svg_24" stroke-width="1.5" stroke="#30363d" fill="none" r="8" cy="115" cx="300"/>
  <circle id="svg_25" stroke-width="1.5" stroke="#30363d" fill="none" r="8" cy="115" cx="390"/>
  <circle id="svg_26" opacity="0.85" fill="#f97316" r="9" cy="115" cx="480"/>
  <circle id="svg_27" opacity="0.85" fill="#a78bfa" r="9" cy="151" cx="210"/>
  <circle id="svg_28" opacity="0.85" fill="#60a5fa" r="9" cy="151" cx="300"/>
  <circle id="svg_29" opacity="0.85" fill="#34d399" r="9" cy="151" cx="390"/>
  <circle id="svg_30" stroke-width="1.5" stroke="#30363d" fill="none" r="8" cy="151" cx="480"/>
  <line id="svg_31" stroke-dasharray="4,3" stroke="#21262d" y2="190" x2="542" y1="20" x1="542"/>
  <text id="svg_32" fill="#8b949e" font-size="13" font-family="-apple-system,BlinkMacSystemFont,sans-serif" y="25" x="558">context merged at hire time</text>
  <rect id="svg_33" rx="4" stroke="#a78bfa" fill="#1a1f2e" height="24" width="148" y="46" x="560"/>
  <text id="svg_34" text-anchor="middle" fill="#a78bfa" font-size="10" font-family="'SF Mono',Menlo,monospace" y="62" x="634">agency-prompt.md</text>
  <line id="svg_35" stroke-width="1.5" stroke="#4b5563" y2="80" x2="634" y1="70" x1="634"/>
  <polygon id="svg_36" fill="#4b5563" points="629,78 634,86 639,78"/>
  <rect id="svg_37" rx="4" stroke="#60a5fa" fill="#1a1f2e" height="24" width="148" y="86" x="560"/>
  <text id="svg_38" text-anchor="middle" fill="#60a5fa" font-size="10" font-family="'SF Mono',Menlo,monospace" y="102" x="634">team/prompt.md</text>
  <line id="svg_39" stroke-width="1.5" stroke="#4b5563" y2="120" x2="634" y1="110" x1="634"/>
  <polygon id="svg_40" fill="#4b5563" points="629,118 634,126 639,118"/>
  <rect id="svg_41" rx="4" stroke="#34d399" fill="#1a1f2e" height="24" width="148" y="126" x="560"/>
  <text id="svg_42" text-anchor="middle" fill="#34d399" font-size="10" font-family="'SF Mono',Menlo,monospace" y="142" x="634">role/prompt.md</text>
  <line id="svg_43" stroke-width="1.5" stroke="#4b5563" y2="160" x2="634" y1="150" x1="634"/>
  <polygon id="svg_44" fill="#4b5563" points="629,158 634,166 639,158"/>
  <rect id="svg_45" rx="4" stroke="#f97316" fill="#1a1f2e" height="24" width="148" y="166" x="560"/>
  <text id="svg_46" text-anchor="middle" fill="#f97316" font-size="10" font-family="'SF Mono',Menlo,monospace" y="182" x="634">project/prompt.md</text>
  <text id="svg_47" fill="#8b949e" font-size="13" font-family="-apple-system,BlinkMacSystemFont,sans-serif" y="85" x="729">update a role prompt once</text>
  <text id="svg_48" fill="#8b949e" font-size="13" font-family="-apple-system,BlinkMacSystemFont,sans-serif" y="108" x="728">every agent with that</text>
  <text id="svg_49" fill="#8b949e" font-size="13" font-family="-apple-system,BlinkMacSystemFont,sans-serif" y="129" x="728">role gets it on the</text>
  <text id="svg_50" fill="#c9d1d9" font-size="13" font-family="-apple-system,BlinkMacSystemFont,sans-serif" y="151" x="729">next sync</text>
 </g>
</svg>