<svg width="1200" height="320" viewBox="0 0 1200 320" xmlns="http://www.w3.org/2000/svg" role="img" aria-labelledby="title desc">
  <title id="title">Multigent</title>
  <desc id="desc">Agent collaboration infrastructure for teams that want agents to actually deliver.</desc>
  <rect width="1200" height="320" rx="28" fill="#ffffff"/>
  <rect x="1" y="1" width="1198" height="318" rx="27" fill="none" stroke="#e4e4e7" stroke-width="2"/>

  <g opacity="0.38" stroke="#e4e4e7" stroke-width="1">
    <path d="M760 56h310M760 104h352M760 152h292M760 200h372M760 248h260"/>
    <path d="M820 40v240M900 40v240M980 40v240M1060 40v240"/>
  </g>

  <g transform="translate(88 80)">
    <rect width="160" height="160" rx="36" fill="#ffffff"/>
    <rect x="5" y="5" width="150" height="150" rx="31" fill="none" stroke="#e4e4e7" stroke-width="2"/>
    <path d="M40 114V47l40 45 40-45v67" fill="none" stroke="#0f172a" stroke-width="14" stroke-linecap="round" stroke-linejoin="round"/>
    <path d="M40 114V47l40 45 40-45v67" fill="none" stroke="#0284c7" stroke-width="5" stroke-linecap="round" stroke-linejoin="round"/>
    <circle cx="40" cy="47" r="10" fill="#ffffff" stroke="#0284c7" stroke-width="5"/>
    <circle cx="80" cy="92" r="10" fill="#ffffff" stroke="#0f172a" stroke-width="5"/>
    <circle cx="120" cy="47" r="10" fill="#ffffff" stroke="#0284c7" stroke-width="5"/>
    <circle cx="40" cy="114" r="8" fill="#0f172a"/>
    <circle cx="120" cy="114" r="8" fill="#0f172a"/>
  </g>

  <g transform="translate(304 82)">
    <text x="0" y="62" font-family="Inter, ui-sans-serif, system-ui, -apple-system, BlinkMacSystemFont, Segoe UI, sans-serif" font-size="64" font-weight="760" fill="#0f172a" letter-spacing="0">Multigent</text>
    <text x="3" y="112" font-family="Inter, ui-sans-serif, system-ui, -apple-system, BlinkMacSystemFont, Segoe UI, sans-serif" font-size="24" font-weight="500" fill="#3f3f46" letter-spacing="0">Agent collaboration infrastructure for real delivery.</text>
    <g transform="translate(4 148)">
      <rect x="0" y="0" width="164" height="34" rx="17" fill="#f0f9ff" stroke="#bae6fd"/>
      <text x="18" y="23" font-family="Inter, ui-sans-serif, system-ui" font-size="15" font-weight="650" fill="#0369a1">Workflows</text>
      <rect x="182" y="0" width="152" height="34" rx="17" fill="#fafafa" stroke="#e4e4e7"/>
      <text x="200" y="23" font-family="Inter, ui-sans-serif, system-ui" font-size="15" font-weight="650" fill="#27272a">Sandbox</text>
      <rect x="352" y="0" width="130" height="34" rx="17" fill="#fafafa" stroke="#e4e4e7"/>
      <text x="370" y="23" font-family="Inter, ui-sans-serif, system-ui" font-size="15" font-weight="650" fill="#27272a">Tools</text>
    </g>
  </g>

  <g transform="translate(812 80)">
    <rect width="300" height="160" rx="16" fill="#fafafa" stroke="#e4e4e7"/>
    <path d="M36 54h74M124 54h58M196 54h42" stroke="#0284c7" stroke-width="8" stroke-linecap="round"/>
    <path d="M36 88h46M96 88h92M202 88h52" stroke="#0f172a" stroke-width="8" stroke-linecap="round"/>
    <path d="M36 122h112M162 122h34M210 122h54" stroke="#a1a1aa" stroke-width="8" stroke-linecap="round"/>
  </g>
</svg>
